<?xml version="1.0" standalone="no"?>
<!DOCTYPE svg PUBLIC "-//W3C//DTD SVG 20010904//EN"
 "http://www.w3.org/TR/2001/REC-SVG-20010904/DTD/svg10.dtd">
<svg version="1.0" xmlns="http://www.w3.org/2000/svg"
 width="500.000000pt" height="350.000000pt" viewBox="0 0 500.000000 350.000000"
 preserveAspectRatio="xMidYMid meet">
<metadata>
Created by potrace 1.15, written by Peter Selinger 2001-2017
</metadata>
<g transform="translate(0.000000,350.000000) scale(0.100000,-0.100000)"
fill="#000000" stroke="none">
<path d="M2 2803 c1 -384 3 -651 5 -593 6 262 26 612 39 680 8 47 31 110 60
170 40 80 62 110 138 186 76 76 106 98 186 138 53 26 126 53 165 61 82 16 454
34 925 44 264 6 139 8 -592 9 l-928 2 2 -697z"/>
<path d="M3230 3493 c252 -4 854 -23 1011 -33 107 -7 167 -16 222 -33 216 -69
397 -244 469 -453 35 -101 46 -215 57 -579 7 -216 8 -144 9 423 l2 682 -962
-2 c-530 -1 -893 -3 -808 -5z"/>
<path d="M4987 1168 c-9 -383 -22 -530 -52 -625 -81 -255 -315 -455 -575 -492
-106 -15 -552 -32 -1050 -40 -350 -6 -239 -8 633 -9 l1057 -2 0 720 c0 396 -2
720 -3 720 -2 0 -7 -123 -10 -272z"/>
<path d="M2 658 l-2 -658 1093 2 c600 2 995 4 877 5 -313 3 -968 22 -1165 34
-93 5 -199 17 -235 25 -75 19 -184 71 -252 121 -123 90 -230 248 -268 396 -18
73 -37 343 -43 622 -2 61 -4 -186 -5 -547z"/>
</g>
</svg>
